mtllib cathy63mod.mtl
o cathy63_object
v 10.085000 10.393001 -4.977000 0.4980 0.4980 0.4980
v 9.332001 10.393001 -3.737000 0.4980 0.4980 0.4980
v 10.240001 10.393001 -4.480000 0.4980 0.4980 0.4980
v 8.844001 10.393001 -2.182000 0.2823 0.2823 0.2823
v 8.585000 10.393001 -2.627000 0.2510 0.2510 0.2510
v 8.835000 10.393001 -3.277000 0.2510 0.2510 0.2510
v 8.229000 10.393001 -2.119000 0.4980 0.4980 0.4980
v 8.030001 10.393001 -2.458000 0.4980 0.4980 0.4980
v 8.327001 10.393001 -3.014000 0.2510 0.2510 0.2510
v 9.047001 11.033001 -4.761000 0.4980 0.4980 0.4980
v 7.482910 11.673000 -2.897000 0.0000 0.0000 0.0000
v 7.884000 11.673000 -2.687000 0.0000 0.0000 0.0000
v 8.423000 11.673000 -4.056000 0.0000 0.0000 0.0000
v 8.550392 12.360208 -2.865680 0.0000 0.0000 0.0000
v 7.884000 11.033001 -2.687000 0.4980 0.4980 0.4980
v 8.597000 10.393001 -3.860000 0.2510 0.2510 0.2510
v 10.029000 11.033001 -5.262000 0.4980 0.4980 0.4980
v 9.168001 10.393001 -4.510000 0.4980 0.4980 0.4980
v 9.618001 11.673000 -3.212000 0.0000 0.0000 0.0000
v 10.029000 11.673000 -5.262000 0.0000 0.0000 0.0000
v 9.034001 11.033001 -2.011000 0.4980 0.4980 0.4980
v 8.574000 11.035001 -1.241000 0.4980 0.4980 0.4980
v 8.221919 12.370067 -2.153688 0.0000 0.0000 0.0000
v 7.482910 11.033001 -2.897000 0.4980 0.4980 0.4980
v 9.497001 10.393001 -3.463000 0.4980 0.4980 0.4980
v 9.073000 10.393001 -2.963000 0.2510 0.2510 0.2510
v 9.047001 11.673000 -4.761000 0.0000 0.0000 0.0000
v 8.574000 11.673000 -1.241000 0.0000 0.0000 0.0000
v 8.137000 11.033001 -3.187000 0.2510 0.2510 0.2510
v 10.240001 10.393001 -3.840000 0.4980 0.4980 0.4980
v 10.129999 12.313000 -4.312000 0.0000 0.0000 0.0000
v 10.297001 11.673000 -3.556000 0.0000 0.0000 0.0000
v 9.298373 12.337809 -3.976372 0.0000 0.0000 0.0000
v 7.522742 12.390997 -1.899183 0.0000 0.0000 0.0000
v 7.474910 11.673000 -0.923000 0.0000 0.0000 0.0000
v 8.137000 11.673000 -3.187000 0.0000 0.0000 0.0000
v 10.297001 11.033001 -3.556000 0.4980 0.4980 0.4980
v 9.247000 11.673000 -2.767000 0.0000 0.0000 0.0000
v 7.474910 11.033001 -0.923000 0.4980 0.4980 0.4980
v 9.034001 11.673000 -2.011000 0.0000 0.0000 0.0000
v 9.247000 11.033001 -2.767000 0.2510 0.2510 0.2510
v 9.618001 11.033001 -3.212000 0.4980 0.4980 0.4980
v 8.423000 11.033001 -4.056000 0.4980 0.4980 0.4980
v 8.796673 12.352251 -3.517034 0.0000 0.0000 0.0000
v 8.211588 12.111167 -3.081630 0.0000 0.0000 0.0000
v 9.090836 12.083970 -3.102073 0.0000 0.0000 0.0000
v 8.879564 12.100107 -2.401651 0.0000 0.0000 0.0000
v 7.499856 12.200763 -2.575480 0.0000 0.0000 0.0000
v 10.076127 12.003757 -4.794244 0.0000 0.0000 0.0000
v 8.462125 12.143027 -1.620683 0.0000 0.0000 0.0000
v 9.485897 12.052197 -3.555227 0.0000 0.0000 0.0000
v 9.134580 12.073516 -4.421089 0.0000 0.0000 0.0000
v 7.541995 12.218488 -1.269422 0.0000 0.0000 0.0000
v 8.513737 12.103646 -3.844830 0.0000 0.0000 0.0000
v 7.964861 12.156193 -2.535197 0.0000 0.0000 0.0000
v 10.213500 11.993000 -3.934000 0.0000 0.0000 0.0000
v 7.472000 10.394001 -1.910001 0.4980 0.4980 0.4980
v 7.478910 10.393001 -2.662000 0.4980 0.4980 0.4980
v 7.478910 10.393001 -1.157000 0.4980 0.4980 0.4980
v 8.428001 10.393001 -1.471000 0.4980 0.4980 0.4980
v 7.439000 11.129000 -2.849001 0.4980 0.4980 0.4980
v 7.437000 10.762001 -2.658999 0.4980 0.4980 0.4980
v 7.437000 10.762001 -1.143000 0.4980 0.4980 0.4980
v 7.455000 10.595001 -2.501000 0.4980 0.4980 0.4980
v 7.472000 10.394001 -1.910001 0.4980 0.4980 0.4980
v 7.463000 10.461000 -2.239000 0.4980 0.4980 0.4980
v 7.463000 10.461000 -1.564000 0.4980 0.4980 0.4980
v 7.455000 10.595001 -1.302001 0.4980 0.4980 0.4980
v 7.439000 11.546000 -2.865001 0.0118 0.0118 0.0118
v 7.439000 11.129000 -0.953001 0.3647 0.3647 0.3647
v 7.439000 11.546000 -0.936999 0.0000 0.0000 0.0000
v 7.425000 11.866001 -2.726000 0.0000 0.0000 0.0000
v 7.411000 12.079000 -2.565001 0.0000 0.0000 0.0000
v 7.425000 11.866001 -1.075999 0.0000 0.0000 0.0000
v 7.411000 12.079000 -1.237000 0.0000 0.0000 0.0000
v 7.451000 12.257999 -1.526001 0.0000 0.0000 0.0000
v 7.491000 12.313000 -1.908000 0.0000 0.0000 0.0000
v 7.451000 12.257999 -2.276000 0.0000 0.0000 0.0000
vn -0.0000 1.0000 -0.0000
vn -0.7102 0.3723 -0.5975
vn 0.8952 0.3383 0.2902
vn 0.4165 0.4000 0.8164
vn -0.8031 0.3592 -0.4755
vn -0.4845 -0.8578 -0.1715
vn -0.4849 -0.8633 -0.1401
vn -0.5192 -0.8433 -0.1389
vn 0.8923 -0.0000 0.4515
vn -0.4519 -0.0000 -0.8920
vn 0.7488 -0.0000 0.6628
vn -0.2972 -0.8067 -0.5107
vn -0.2649 -0.8099 -0.5233
vn -0.2657 -0.8097 -0.5232
vn 0.5847 -0.5315 0.6129
vn 0.6205 -0.5207 0.5864
vn 0.6195 -0.5215 0.5867
vn -0.9625 -0.0000 -0.2712
vn 0.1334 -0.8564 0.4988
vn 0.1476 -0.8654 0.4788
vn 0.1680 -0.8552 0.4903
vn 0.4896 -0.8453 0.2139
vn 0.4881 -0.8507 0.1950
vn 0.5052 -0.8412 0.1927
vn -0.4638 -0.0000 0.8859
vn 0.4545 -0.0000 0.8908
vn 0.9499 -0.0000 0.3126
vn -0.2739 0.3518 -0.8951
vn -0.2737 0.3520 -0.8951
vn -0.2780 0.3558 -0.8923
vn -0.1393 -0.3984 0.9066
vn -0.4606 -0.3032 0.8342
vn -0.4726 -0.3060 0.8264
vn -0.4147 -0.8502 -0.3244
vn -0.3691 -0.8589 -0.3551
vn -0.3695 -0.8588 -0.3549
vn -0.1548 -0.9450 -0.2883
vn -0.1756 -0.9414 -0.2881
vn -0.1750 -0.9414 -0.2883
vn -0.7681 -0.0000 -0.6404
vn -0.8585 -0.0000 -0.5129
vn 0.8296 0.3535 0.4321
vn 0.8297 0.3535 0.4321
vn -0.4148 0.3997 -0.8174
vn 0.6954 0.3744 0.6133
vn -0.9064 0.3325 -0.2606
vn 0.4399 -0.8673 0.2328
vn 0.4381 -0.8658 0.2420
vn 0.4321 -0.8684 0.2430
vn 0.1402 -0.9388 0.3147
vn 0.0102 -0.8871 0.4615
vn -0.1822 -0.8828 0.4330
vn 0.2409 -0.7386 0.6297
vn 0.2738 -0.7347 0.6206
vn 0.2726 -0.7350 0.6209
vn -0.6207 -0.6283 -0.4690
vn -0.6068 -0.6138 -0.5050
vn -0.5775 -0.6422 -0.5040
vn -0.4155 -0.8881 -0.1967
vn -0.4512 -0.8759 -0.1710
vn -0.4502 -0.8764 -0.1710
vn -0.8142 -0.5219 -0.2544
vn -0.8389 -0.4987 -0.2180
vn -0.8392 -0.4985 -0.2174
vn -0.7150 -0.5657 -0.4109
vn -0.7300 -0.5683 -0.3796
vn -0.7452 -0.5461 -0.3827
vn -0.3566 -0.7218 -0.5932
vn -0.3428 -0.7116 -0.6133
vn -0.3234 -0.7257 -0.6072
vn 0.8684 -0.2637 0.4200
vn 0.8624 -0.2656 0.4309
vn 0.8623 -0.2664 0.4307
vn 0.3008 -0.8653 0.4010
vn 0.3105 -0.8765 0.3679
vn 0.3408 -0.8615 0.3764
vn 0.8942 -0.2937 0.3378
vn 0.9049 -0.2862 0.3151
vn 0.9046 -0.2868 0.3152
vn 0.4161 0.3991 0.8171
vn -0.4145 0.3993 -0.8177
vn 0.6954 0.3745 0.6133
vn -0.2693 -0.5690 -0.7770
vn -0.2814 -0.5725 -0.7701
vn -0.2898 -0.5616 -0.7750
vn 0.8910 0.2049 0.4052
vn 0.9737 0.0686 0.2172
vn 0.9473 0.1051 0.3025
vn 0.9936 0.1128 0.0060
vn 0.9892 0.1158 -0.0902
vn 0.9947 0.1008 0.0212
vn 0.9852 0.1636 -0.0513
vn 0.9844 0.1755 0.0088
vn 0.9638 0.2660 -0.0172
vn 0.9841 0.1776 -0.0088
vn 0.9945 0.1021 -0.0218
vn 0.9936 0.1131 -0.0063
vn 0.9479 0.1418 -0.2852
vn 0.9436 0.1189 -0.3090
vn 0.8900 0.2058 -0.4069
vn 0.9047 0.1948 -0.3790
vn 0.6839 0.0280 -0.7291
vn 0.6833 -0.0053 -0.7302
vn 0.3632 -0.0000 -0.9317
vn 0.3546 -0.0321 -0.9345
vn 0.7619 0.0248 0.6473
vn 0.5889 -0.0000 0.8082
vn 0.8565 -0.1737 0.4860
vn 0.5752 -0.4390 0.6902
vn 0.5734 -0.5410 0.6153
vn 0.6575 -0.4263 0.6212
vn 0.6322 -0.5347 0.5608
vn 0.8432 -0.1827 -0.5055
vn 0.3170 -0.5424 -0.7780
vn 0.3225 -0.5354 -0.7806
vn 0.3891 -0.5391 -0.7470
vn 0.3812 -0.5439 -0.7476
vn 0.7944 -0.5594 0.2365
vn 0.7148 -0.6578 0.2376
vn 0.3745 -0.8566 0.3549
vn 0.4043 -0.9079 0.1106
vn 0.4046 -0.8838 0.2349
vn 0.9271 -0.3722 -0.0451
vn 0.8995 -0.4049 -0.1643
vn 0.6468 -0.6852 -0.3349
vn 0.6456 -0.6820 -0.3436
vn 0.9238 -0.3807 0.0419
vn 0.8695 -0.4934 0.0222
vn 0.3031 -0.9424 -0.1415
vn 0.3381 -0.9025 -0.2666
vn 0.3353 -0.9060 -0.2584
vn -0.2779 -0.0000 -0.9606
vn -0.2781 0.3557 -0.8922
vn -0.2739 0.3517 -0.8951
vn -0.3971 0.2776 0.8748
vn -0.3677 0.2698 0.8900
vn -0.3648 0.2750 0.8896
vn -0.3949 0.2816 0.8745
vn -0.3638 0.2757 0.8897
vn 0.2602 -0.7262 0.6363
vn 0.2396 -0.7397 0.6288
vn 0.2713 -0.7362 0.6200
vn 0.6090 -0.5086 0.6086
vn 0.5835 -0.5329 0.6128
vn 0.6184 -0.5229 0.5866
vn 0.9026 -0.2781 0.3286
vn 0.8942 -0.2937 0.3379
vn 0.9046 -0.2869 0.3152
vn 0.8653 -0.2709 0.4218
vn 0.8684 -0.2636 0.4199
vn 0.8623 -0.2663 0.4307
vn -0.3474 -0.5181 0.7816
vn -0.1384 -0.3975 0.9071
vn -0.4721 -0.3053 0.8270
vn 0.1346 -0.8565 0.4982
vn 0.3014 -0.8657 0.3996
vn 0.4898 -0.8452 0.2136
vn 0.4398 -0.8674 0.2330
vn 0.4400 -0.8673 0.2328
vn 0.4322 -0.8684 0.2430
vn 0.1510 -0.9406 0.3040
vn 0.1407 -0.9385 0.3153
vn -0.1818 -0.8827 0.4334
vn -0.2695 -0.5699 -0.7763
vn -0.2687 -0.5698 -0.7766
vn -0.2892 -0.5623 -0.7747
vn -0.7150 -0.5660 -0.4104
vn -0.7148 -0.5659 -0.4110
vn -0.7449 -0.5464 -0.3829
vn -0.8358 -0.4903 -0.2469
vn -0.6193 -0.6291 -0.4697
vn -0.6206 -0.6283 -0.4691
vn -0.5775 -0.6423 -0.5040
vn -0.3552 -0.7221 -0.5937
vn -0.3233 -0.7258 -0.6072
vn -0.1633 -0.9401 -0.2991
vn -0.4353 -0.8761 -0.2071
vn -0.4502 -0.8764 -0.1709
vn -0.4846 -0.8578 -0.1715
vn -0.3767 -0.8685 -0.3221
vn -0.4148 -0.8501 -0.3244
vn -0.3696 -0.8587 -0.3549
vn -0.2752 -0.8184 -0.5044
vn -0.2973 -0.8067 -0.5108
vt 0.000000 0.000000
vt 0.247059 0.247059
vt 0.000000 0.247059
vt 0.247059 0.000000
vt 0.749020 0.000000
vt 0.501961 0.247059
vt 0.501961 0.000000
vt 0.749020 0.247059
vt 0.752941 1.000000
vt 0.752941 0.876471
vt 1.000000 0.876471
vt 0.250980 0.498039
vt 0.498039 0.250980
vt 0.498039 0.498039
vt 0.250980 0.250980
vt 1.000000 1.000000
vt 0.752941 0.752941
vt 1.000000 0.752941
vt 0.501961 0.123529
vt 0.749020 0.123529
vt 0.250980 0.752941
vt 0.498039 0.752941
vt 0.250980 1.000000
vt 0.498039 1.000000
vt 0.000000 0.247059
vt 0.247059 0.247059
s 0
usemtl cathy63_0001
f 16/1/1 2/2/1 18/3/1
f 2/3/1 30/4/1 3/1/1
f 6/1/1 25/2/1 2/3/1
f 5/3/1 26/4/1 6/1/1
f 18/3/1 3/4/1 1/1/1
f 8/1/1 5/2/1 9/3/1
f 44/9/6 46/10/7 47/11/8
f 51/11/12 33/16/13 31/9/14
f 54/10/15 13/17/16 27/18/17
f 22/9/28 60/17/29 59/18/30
f 53/11/37 34/16/38 23/9/39
f 15/9/42 9/18/42 29/16/43
f 25/18/44 37/9/44 30/17/44
f 43/9/45 18/18/45 10/16/45
f 4/18/46 41/9/46 26/17/46
f 4/1/1 7/2/1 60/3/1
f 9/3/1 6/4/1 16/1/1
f 23/9/47 55/10/48 45/11/49
f 46/10/62 38/17/63 40/18/64
f 19/18/68 51/11/69 56/10/70
f 55/10/71 12/17/72 36/18/73
f 44/9/74 54/10/75 52/11/76
f 58/1/1 57/25/1 7/26/1
f 57/25/1 59/1/1 7/26/1
f 58/25/1 7/26/1 8/1/1
f 59/1/1 60/25/1 7/26/1
f 16/1/1 6/4/1 2/2/1
f 2/3/1 25/2/1 30/4/1
f 6/1/1 26/4/1 25/2/1
f 5/3/1 4/2/1 26/4/1
f 18/3/1 2/2/1 3/4/1
f 8/1/1 7/4/1 5/2/1
f 15/9/43 8/17/42 9/18/43
f 25/18/81 42/16/81 37/9/81
f 43/9/82 16/17/82 18/18/82
f 4/18/46 21/16/46 41/9/46
f 4/1/1 5/4/1 7/2/1
f 9/3/1 5/2/1 6/4/1
f 35/18/83 53/11/84 50/10/85
f 39/16/133 22/9/134 59/18/30
f 52/11/143 54/10/144 27/18/145
f 45/11/149 55/10/150 36/18/151
f 33/16/156 44/9/74 52/11/76
f 14/16/158 23/9/159 45/11/160
f 28/17/164 35/18/165 50/10/166
f 47/11/170 46/10/62 40/18/64
f 32/17/174 19/18/68 56/10/175
f 50/10/176 53/11/37 23/9/39
f 14/16/179 44/9/6 47/11/8
f 56/10/183 51/11/184 31/9/14
usemtl cathy63_0004
f 24/21/25 15/22/25 11/23/25
f 27/23/26 17/22/26 20/24/26
f 36/23/27 43/22/27 13/24/27
f 41/22/40 19/23/40 42/21/40
f 22/22/41 40/23/41 21/21/41
f 27/23/26 10/21/26 17/22/26
f 36/23/27 29/21/27 43/22/27
f 41/22/40 38/24/40 19/23/40
f 22/22/41 28/24/41 40/23/41
f 15/22/25 12/24/25 11/23/25
usemtl cathy63_0005
f 26/5/2 42/6/2 25/7/2
f 16/5/3 29/6/3 9/7/3
f 10/6/4 1/5/4 17/8/4
f 60/5/5 21/6/5 4/7/5
f 33/6/19 52/19/20 49/20/21
f 14/6/22 45/19/23 54/20/24
f 48/19/31 11/7/32 12/5/33
f 46/20/34 44/8/35 33/6/36
f 34/6/50 48/19/51 55/20/52
f 52/19/53 27/7/54 20/5/55
f 38/5/56 46/20/57 51/19/58
f 50/20/59 23/8/60 14/6/61
f 28/5/65 50/20/66 47/19/67
f 45/19/77 36/7/78 13/5/79
f 26/5/2 41/8/2 42/6/2
f 16/5/3 43/8/3 29/6/3
f 10/6/80 18/7/80 1/5/80
f 60/5/5 22/8/5 21/6/5
f 8/5/135 15/8/136 24/6/137
f 58/7/138 8/5/135 24/6/139
f 49/20/140 52/19/141 20/5/142
f 54/20/146 45/19/147 13/5/148
f 55/20/152 48/19/153 12/5/154
f 31/8/155 33/6/19 49/20/21
f 44/8/157 14/6/22 54/20/24
f 23/8/161 34/6/162 55/20/163
f 40/7/167 28/5/168 47/19/169
f 19/7/171 38/5/172 51/19/173
f 47/19/177 50/20/59 14/6/178
f 51/19/180 46/20/181 33/6/182
usemtl cathy63_0003
f 12/12/9 29/13/9 36/14/9
f 42/13/10 32/12/10 37/15/10
f 13/12/11 10/13/11 27/14/11
f 21/13/18 38/12/18 41/15/18
f 12/12/9 15/15/9 29/13/9
f 42/13/10 19/14/10 32/12/10
f 13/12/11 43/15/11 10/13/11
f 21/13/18 40/14/18 38/12/18
f 39/13/132 35/14/132 28/12/132
f 22/15/132 39/13/132 28/12/132
usemtl cathy63_0000
f 61/1/86 62/1/86 24/1/86
f 58/7/87 24/1/88 62/1/88
f 62/1/89 64/1/89 58/7/90
f 64/1/91 66/1/91 58/7/92
f 66/1/93 65/1/93 58/7/94
f 65/1/95 67/1/95 59/1/95
f 67/1/96 68/1/96 59/1/96
f 68/1/97 63/1/97 59/1/97
f 39/16/98 59/1/99 63/1/99
f 70/1/100 39/16/101 63/1/100
f 70/1/102 71/1/102 39/16/103
f 35/14/104 39/16/105 71/1/104
f 61/1/106 24/1/106 69/1/106
f 24/1/107 11/23/107 69/1/107
f 72/1/108 69/1/108 11/23/108
f 11/23/109 48/19/110 72/1/109
f 72/1/111 48/19/112 73/1/111
f 74/1/113 35/14/113 71/1/113
f 53/11/114 35/14/115 74/1/115
f 75/1/116 53/11/117 74/1/116
f 78/1/118 73/1/118 48/19/119
f 48/19/120 34/6/121 78/1/122
f 77/1/123 78/1/123 34/6/124
f 76/1/125 53/11/126 75/1/125
f 76/1/127 77/1/127 34/6/128
f 34/6/129 53/11/130 76/1/131
